<?xml version="1.0" standalone="no"?>
<!DOCTYPE svg PUBLIC "-//W3C//DTD SVG 20010904//EN"
 "http://www.w3.org/TR/2001/REC-SVG-20010904/DTD/svg10.dtd">
<svg version="1.0" xmlns="http://www.w3.org/2000/svg"
 width="360.000000pt" height="360.000000pt" viewBox="0 0 360.000000 360.000000"
 preserveAspectRatio="xMidYMid meet">

<g transform="translate(0.000000,360.000000) scale(0.100000,-0.100000)"
fill="#000000" stroke="none">
<path d="M1280 3249 c-417 -7 -445 -10 -580 -76 -98 -48 -211 -159 -262 -258
-85 -163 -91 -251 -85 -1210 4 -816 5 -823 58 -958 58 -146 196 -281 344 -336
136 -51 159 -52 1086 -49 804 4 869 5 929 22 239 68 399 235 456 476 16 68 18
155 21 875 4 808 1 924 -32 1050 -49 184 -196 349 -372 415 -113 42 -202 49
-708 52 -264 2 -649 0 -855 -3z"/>
</g>
</svg>
